<?xml version="1.0" encoding="UTF-8" standalone="no"?>
<svg xmlns:sketch="http://www.bohemiancoding.com/sketch/ns" xmlns="http://www.w3.org/2000/svg" height="392px" width="576px" version="1.1" xmlns:xlink="http://www.w3.org/1999/xlink" viewBox="0 0 576 392"><!-- Generator: Sketch 3.3.3 (12081) - http://www.bohemiancoding.com/sketch -->
 <title>Oval 2 + Path 1 + Path 2 + Path 3</title>
 <desc>Created with Sketch.</desc>
 <g id="Page-1" fill-rule="evenodd" sketch:type="MSPage" fill="none">
  <g id="Desktop-HD" transform="translate(-366 -256)" sketch:type="MSArtboardGroup">
   <g id="Oval-2-+-Path-1-+-Path-2-+-Path-3" transform="translate(366 256)" sketch:type="MSLayerGroup">
    <path id="Oval-2" sketch:type="MSShapeGroup" fill="#EBEBEB" d="m70.103 333.26c53.977 34.69 135.04 53.98 223.86 50.88 44.96-1.57 88.97-7.75 126.5-19.7 94.91-30.22 157.32-90.51 155.03-156.14-1.14-32.79-17.53-70.57-46.9-95.31-10.75-9.06-35.52-23.554-35.52-23.554s-41.82-22.214-66.29-28.879c-43.28-11.785-92.84-15.654-144.61-13.846-12.51 0.437-26.44 0.006-38.5 1.344-54.51 6.052-104.84 19.899-144.42 41.805-62.695 34.71-100.21 86.79-98.407 138.51 1.4076 40.32 26.795 77.59 69.26 104.89zm13.942-40s16.735 32.27 59.135 56.25c42.4 23.99 104.11 25.99 115.06 25.58 19.36-0.74 55.62-5.32 74.63-10.42 47.47-12.72 93.13-33.38 123.14-61.76 7.14-6.75 14.03-12.12 20.11-19 13.68-15.5 24.04-33.05 29.52-51.42 7.5-25.13 5.18-54.76-1.24-78.71-21.94-81.884-136.37-123.2-255.34-91.326-12.04 3.227-19.15 2.939-50.39 15.811-31.23 12.872-75.49 39.785-95.23 64.965-37.665 48.07-35.588 82.13-35.641 89.39-0.054 7.27 0.995 26.13 3.159 34.2 2.52 9.41 13.087 26.44 13.087 26.44z"/>
    <g id="Path-1-+-Path-2-+-Path-3" sketch:type="MSShapeGroup" transform="translate(149)">
     <path id="Path-1" fill="#F7F7F7" d="m137.56 127.49l-2.16 7.01-1.75 5-2.84 4.9-3.65 4.54-4.46 3.75-4.34 2.55-5.18 2.32-6.33 1.62-7.061 1.24-10.917 1.72-21.543 1.39-45.389 2.49-20.191-0.2c-0.0004 0-1.7308-2.51-1.5685-2.82 1.5497-2.93 2.2231-8.82 2.2231-8.82l1.8242-0.65 30.503-0.44 21-1.68 21.682-2.47 11.459-2.39s3.95-0.66 7.145-2.15c3.196-1.49 5.723-3.84 5.723-3.84l6.23-6.06 6.7-8.5s3.69-5.8 4.86-8.06 27.83-73.905 27.83-73.905 5.09-13.016 7.7-19.755c2.95-7.583 8.33-23.254 8.33-23.254l9.31 2.5288-35.14 123.94z"/>
     <path id="Path-2" fill="#F7F7F7" d="m221.06 0.3829h9.65l-0.95 9.5712-1.02 8.9449-1.46 10.471-3.01 17.657c-0.68 4.493-1.91 12.597-1.91 12.597l-2.28 16.326-1.66 9.013-1.87 12.621-2.77 13.906-0.41 3.76-0.5 7.37-0.09 3.95 0.59 3.76 1.21 2.77 2.95 4.22 2.55 2.29 3.52 1.26 4.35 0.83 4.93 0.6 4.92 0.1 9.17 0.2h16.65l15.66-0.1 25.95 0.1 0.19 10.88-29.27 1.33-27.43 0.78-14.39 0.97s-40.6 0.97-44.15-0.97-5.26-3.41-6-7.84c-0.73-4.42-0.81-8.73 0.74-18.1s4.36-18.16 4.36-18.16l8.59-27.089 11.43-41.328 11.76-42.69z"/>
     <path id="Path-3" fill="#F8F8F8" d="m292.6 195.66l-90.18 2.56s-19.47 2.67-31.9 14.99c-12.43 12.31-20.18 34.97-20.18 34.97l-8.94 31.59-24.72 85.85-5.22 17.25v8.59h13.18l49.79-139.15s4.57-14.95 16.8-24.63 35.41-14.47 35.41-14.47l65.08-9.37 0.88-8.18z"/>
    </g>
   </g>
  </g>
 </g>
</svg>
