<?xml version="1.0" encoding="UTF-8" standalone="no"?>
<svg width="576px" height="392px" viewBox="0 0 576 392" version="1.1" xmlns="http://www.w3.org/2000/svg" xmlns:xlink="http://www.w3.org/1999/xlink" xmlns:sketch="http://www.bohemiancoding.com/sketch/ns">
    <!-- Generator: Sketch 3.3.3 (12081) - http://www.bohemiancoding.com/sketch -->
    <title>Oval 2 + Path 1 + Path 2 + Path 3</title>
    <desc>Created with Sketch.</desc>
    <defs></defs>
    <g id="Page-1" stroke="none" stroke-width="1" fill="none" fill-rule="evenodd" sketch:type="MSPage">
        <g id="Desktop-HD" sketch:type="MSArtboardGroup" transform="translate(-366.000000, -256.000000)">
            <g id="Oval-2-+-Path-1-+-Path-2-+-Path-3" sketch:type="MSLayerGroup" transform="translate(366.000000, 256.000000)">
                <path d="M70.1034646,333.255082 C124.084108,367.948608 205.14151,387.24049 293.957608,384.138963 C338.916682,382.568958 382.934328,376.385753 420.456512,364.438671 C515.370619,334.217973 577.784155,273.926706 575.492378,208.298809 C574.347225,175.505904 557.958677,137.728709 528.593932,112.98978 C517.837762,103.928025 493.070282,89.4359342 493.070282,89.4359342 C493.070282,89.4359342 451.247656,67.2216251 426.775524,60.5572369 C383.4983,48.7717407 333.943523,44.9030678 282.17436,46.7108868 C269.664295,47.1477479 255.728574,46.7169506 243.672285,48.0554089 C189.162993,54.1068906 138.829462,67.9536878 99.2554429,89.8595563 C36.5550461,124.566838 -0.963227107,176.652383 0.842652872,228.36602 C2.25063475,268.685346 27.6384618,305.962693 70.1034646,333.255082 Z M84.044978,293.256337 C84.044978,293.256337 100.775411,325.528973 143.176317,349.513766 C185.577223,373.498559 247.294639,375.500682 258.240129,375.085084 C277.602192,374.34991 313.863735,369.765094 332.867589,364.673027 C380.338292,351.95329 426.003898,331.291435 456.014543,302.906134 C463.150204,296.156933 470.040277,290.789403 476.116604,283.908045 C489.800805,268.410875 500.164816,250.859476 505.642605,232.493714 C513.138869,207.360474 510.81737,177.727858 504.401459,153.783353 C482.459891,71.8963061 368.02631,30.5784395 249.063369,62.4544646 C237.021132,65.6811723 229.911559,65.393488 198.674937,78.2650948 C167.438314,91.1367015 123.178121,118.047204 103.442425,143.231504 C65.7752047,191.297839 67.8517043,225.358116 67.7985954,232.624012 C67.7454865,239.889908 68.7943999,258.748632 70.9576183,266.821873 C73.4782903,276.229149 84.044978,293.256337 84.044978,293.256337 Z" id="Oval-2" fill="#EBEBEB" sketch:type="MSShapeGroup"></path>
                <g id="Path-1-+-Path-2-+-Path-3" transform="translate(149.000000, 0.000000)" sketch:type="MSShapeGroup">
                    <path d="M137.564613,127.494087 L135.401536,134.502567 L133.654748,139.504296 L130.811134,144.402232 L127.163721,148.938012 L122.698729,152.688201 L118.364946,155.235437 L113.178419,157.561828 L106.850458,159.184923 L99.7888346,160.424312 L88.871958,162.142896 L67.3292921,163.529136 L21.9400705,166.021165 L1.74864506,165.819108 C1.74864506,165.819108 0.0182123191,163.311578 0.180539738,163.004515 C1.73018792,160.073154 2.4035915,154.181542 2.4035915,154.181542 L4.22780831,153.529958 L34.7309607,153.092095 L55.731147,151.414582 L77.412658,148.938018 L88.8719558,146.554665 C88.8719558,146.554665 92.8220749,145.891426 96.0172998,144.402234 C99.2125247,142.913043 101.740687,140.556964 101.740687,140.556964 L107.966063,134.502567 L114.668343,126.004239 C114.668343,126.004239 118.364951,120.196966 119.532537,117.937601 C120.700122,115.678235 147.361296,44.0345762 147.361296,44.0345762 C147.361296,44.0345762 152.44501,31.0190942 155.062771,24.2795593 C158.007966,16.6970305 163.389206,1.02553284 163.389206,1.02553284 L172.704961,3.55481896 L137.564613,127.494087 Z" id="Path-1" fill="#F7F7F7"></path>
                    <path d="M221.063699,0.382904875 L230.714667,0.382904875 L229.763687,9.95410229 L228.738896,18.8986548 L227.281565,29.3697093 L224.266635,47.0274191 C223.586579,51.5197385 222.3598,59.6236059 222.3598,59.6236059 L220.079801,75.9497564 L218.420222,84.9631698 L216.551558,97.5844588 L213.783315,111.487673 L213.37198,115.247874 L212.871201,122.624507 L212.782325,126.569552 L213.371979,130.33306 L214.578066,133.101838 L217.530463,137.321913 L220.079802,139.609492 L223.597372,140.865345 L227.952731,141.704876 L232.876164,142.300665 L237.804197,142.402215 L246.968852,142.597329 L263.615826,142.597329 L279.283988,142.495778 L305.234495,142.597328 L305.424779,153.480858 L276.152266,154.812417 L248.715374,155.591727 L234.326658,156.555881 C234.326658,156.555881 193.727708,157.533741 190.180602,155.591729 C186.633495,153.649717 184.915298,152.182501 184.182075,147.75469 C183.448852,143.32688 183.365225,139.023717 184.915298,129.651996 C186.465371,120.280275 189.277454,111.487673 189.277454,111.487673 L197.871638,84.400767 L209.302507,43.0732468 L221.063699,0.382904875 Z" id="Path-2" fill="#F7F7F7"></path>
                    <path d="M292.601867,195.658167 L202.422667,198.224639 C202.422667,198.224639 182.953245,200.891843 170.520874,213.207021 C158.088504,225.5222 150.344828,248.181166 150.344828,248.181166 L141.397535,279.771068 L116.675059,365.623988 L111.459691,382.870234 L111.459691,391.455384 L124.639673,391.455384 L174.431938,252.31408 C174.431938,252.31408 178.995722,237.364959 191.225479,227.68323 C203.455237,218.001501 226.636381,213.207021 226.636381,213.207021 L291.723196,203.838315 L292.601867,195.658167 Z" id="Path-3" fill="#F8F8F8"></path>
                </g>
            </g>
        </g>
    </g>
</svg>